<svg width="236" height="236" viewBox="0 0 236 236" fill="none" xmlns="http://www.w3.org/2000/svg">
<g filter="url(#filter0_d_10_168)">
<circle cx="118" cy="114" r="63" fill="#0BF7A2" fill-opacity="0.22" shape-rendering="crispEdges"/>
</g>
<path fill-rule="evenodd" clip-rule="evenodd" d="M136.979 124.5C137.288 122.375 137.499 120.213 137.499 118C137.499 115.787 137.288 113.629 136.979 111.5H146.502C146.976 113.593 147.249 115.764 147.249 118C147.249 120.236 146.976 122.404 146.502 124.5H136.979ZM128.178 145.394C131.422 141.107 133.98 136.275 135.559 131H144.175C140.879 137.617 135.166 142.794 128.178 145.394ZM107.255 131H128.747C126.537 137.224 122.822 142.733 117.999 147.052C113.18 142.733 109.462 137.224 107.255 131ZM91.827 131H100.436C102.019 136.275 104.577 141.107 107.82 145.394C100.833 142.794 95.1193 137.617 91.827 131ZM88.7493 118C88.7493 115.764 89.0255 113.593 89.5 111.5H99.0193C98.7138 113.629 98.4993 115.787 98.4993 118C98.4993 120.213 98.7138 122.375 99.0193 124.5H89.5C89.0255 122.404 88.7493 120.236 88.7493 118ZM107.82 90.6058C104.577 94.8925 102.019 99.7253 100.436 105H91.827C95.1193 98.383 100.833 93.2058 107.82 90.6058ZM128.747 105H107.255C109.462 98.7763 113.18 93.2675 117.999 88.9483C122.822 93.2675 126.537 98.7763 128.747 105ZM130.999 118C130.999 120.223 130.759 122.381 130.405 124.5H105.597C105.24 122.381 104.999 120.223 104.999 118C104.999 115.777 105.24 113.619 105.597 111.5H130.405C130.759 113.619 130.999 115.777 130.999 118ZM144.175 105H135.559C133.98 99.7253 131.422 94.8925 128.178 90.6058C135.166 93.2058 140.879 98.383 144.175 105ZM117.999 82.25C98.2555 82.25 82.2493 98.2563 82.2493 118C82.2493 137.744 98.2555 153.75 117.999 153.75C137.743 153.75 153.749 137.744 153.749 118C153.749 98.2563 137.743 82.25 117.999 82.25Z" fill="#0BF7A2"/>
<defs>
<filter id="filter0_d_10_168" x="0" y="0" width="236" height="236" filterUnits="userSpaceOnUse" color-interpolation-filters="sRGB">
<feFlood flood-opacity="0" result="BackgroundImageFix"/>
<feColorMatrix in="SourceAlpha" type="matrix" values="0 0 0 0 0 0 0 0 0 0 0 0 0 0 0 0 0 0 127 0" result="hardAlpha"/>
<feMorphology radius="20" operator="dilate" in="SourceAlpha" result="effect1_dropShadow_10_168"/>
<feOffset dy="4"/>
<feGaussianBlur stdDeviation="17.5"/>
<feComposite in2="hardAlpha" operator="out"/>
<feColorMatrix type="matrix" values="0 0 0 0 0.0443056 0 0 0 0 0.966667 0 0 0 0 0.634617 0 0 0 0.05 0"/>
<feBlend mode="normal" in2="BackgroundImageFix" result="effect1_dropShadow_10_168"/>
<feBlend mode="normal" in="SourceGraphic" in2="effect1_dropShadow_10_168" result="shape"/>
</filter>
</defs>
</svg>
