<svg width="105" height="97" viewBox="0 0 105 97" fill="none" xmlns="http://www.w3.org/2000/svg">
<rect width="105" height="96.08" rx="20" fill="#FF6347" fill-opacity="0.37"/>
<path fill-rule="evenodd" clip-rule="evenodd" d="M27.7498 33.4167C27.7498 31.8058 29.0557 30.5 30.6665 30.5H77.3332C78.944 30.5 80.2498 31.8058 80.2498 33.4167L80.2498 36.3333H27.7498V33.4167ZM27.7498 45.0833V62.5833C27.7498 64.1942 29.0557 65.5 30.6665 65.5H77.3332C78.944 65.5 80.2498 64.1942 80.2498 62.5833L80.2498 45.0833H27.7498ZM77.3332 24.6667H30.6665C25.834 24.6667 21.9165 28.5842 21.9165 33.4167V62.5833C21.9165 67.4158 25.834 71.3333 30.6665 71.3333H77.3332C82.1657 71.3333 86.0832 67.4158 86.0832 62.5833V33.4167C86.0832 28.5842 82.1657 24.6667 77.3332 24.6667Z" fill="#FF6347"/>
</svg>
