<svg width="288" height="79" viewBox="0 0 288 79" fill="none" xmlns="http://www.w3.org/2000/svg">
<g filter="url(#filter0_f_10_99)">
<mask id="path-1-inside-1_10_99" fill="white">
<path d="M279 -65C279 -47.2715 275.508 -29.7167 268.724 -13.3377C261.939 3.04121 251.995 17.9235 239.459 30.4594C226.924 42.9953 212.041 52.9393 195.662 59.7237C179.283 66.5081 161.728 70 144 70C126.272 70 108.717 66.5081 92.3377 59.7237C75.9588 52.9393 61.0765 42.9953 48.5406 30.4594C36.0047 17.9235 26.0606 3.04121 19.2763 -13.3378C12.4919 -29.7167 9 -47.2716 9 -65L61.8473 -65C61.8473 -54.2116 63.9723 -43.5288 68.1008 -33.5615C72.2294 -23.5943 78.2807 -14.5379 85.9093 -6.9093C93.5379 0.719284 102.594 6.7706 112.562 10.8992C122.529 15.0277 133.212 17.1527 144 17.1527C154.788 17.1527 165.471 15.0277 175.438 10.8992C185.406 6.77061 194.462 0.719284 202.091 -6.90929C209.719 -14.5379 215.771 -23.5943 219.899 -33.5615C224.028 -43.5288 226.153 -54.2116 226.153 -65H279Z"/>
</mask>
<path d="M279 -65C279 -47.2715 275.508 -29.7167 268.724 -13.3377C261.939 3.04121 251.995 17.9235 239.459 30.4594C226.924 42.9953 212.041 52.9393 195.662 59.7237C179.283 66.5081 161.728 70 144 70C126.272 70 108.717 66.5081 92.3377 59.7237C75.9588 52.9393 61.0765 42.9953 48.5406 30.4594C36.0047 17.9235 26.0606 3.04121 19.2763 -13.3378C12.4919 -29.7167 9 -47.2716 9 -65L61.8473 -65C61.8473 -54.2116 63.9723 -43.5288 68.1008 -33.5615C72.2294 -23.5943 78.2807 -14.5379 85.9093 -6.9093C93.5379 0.719284 102.594 6.7706 112.562 10.8992C122.529 15.0277 133.212 17.1527 144 17.1527C154.788 17.1527 165.471 15.0277 175.438 10.8992C185.406 6.77061 194.462 0.719284 202.091 -6.90929C209.719 -14.5379 215.771 -23.5943 219.899 -33.5615C224.028 -43.5288 226.153 -54.2116 226.153 -65H279Z" stroke="#0BF7A2" stroke-width="8" mask="url(#path-1-inside-1_10_99)"/>
</g>
<defs>
<filter id="filter0_f_10_99" x="0" y="-74" width="288" height="153" filterUnits="userSpaceOnUse" color-interpolation-filters="sRGB">
<feFlood flood-opacity="0" result="BackgroundImageFix"/>
<feBlend mode="normal" in="SourceGraphic" in2="BackgroundImageFix" result="shape"/>
<feGaussianBlur stdDeviation="4.5" result="effect1_foregroundBlur_10_99"/>
</filter>
</defs>
</svg>
