<svg width="105" height="97" viewBox="0 0 105 97" fill="none" xmlns="http://www.w3.org/2000/svg">
<rect width="105" height="96.08" rx="20" fill="#FF6347" fill-opacity="0.37"/>
<path fill-rule="evenodd" clip-rule="evenodd" d="M40.6667 26.1667H74.25C78.5302 26.1667 82 29.6365 82 33.9167V54.5833C82 58.8635 78.5302 62.3333 74.25 62.3333H71.6667V67.5C71.6667 68.4785 71.1138 69.373 70.2386 69.8106C69.3634 70.2482 68.3161 70.1538 67.5333 69.5667L61.3333 64.9125V64.9167C61.3333 69.1969 57.8635 72.6667 53.5833 72.6667H44.1025L34.4667 79.9C33.6839 80.4871 32.6366 80.5815 31.7614 80.1439C30.8862 79.7063 30.3333 78.8118 30.3333 77.8333V72.6667H27.75C23.4698 72.6667 20 69.1969 20 64.9167V46.8333C20 42.5531 23.4698 39.0833 27.75 39.0833H32.9167V33.9167C32.9167 29.6365 36.3865 26.1667 40.6667 26.1667ZM40.6667 62.3333H56.1667V64.9167C56.1667 66.3434 55.0101 67.5 53.5833 67.5H43.25C42.691 67.5 42.1472 67.6813 41.7 68.0167L35.5 72.6667V70.0833C35.5 68.6566 34.3434 67.5 32.9167 67.5H27.75C26.3233 67.5 25.1667 66.3434 25.1667 64.9167V46.8333C25.1667 45.4066 26.3233 44.25 27.75 44.25H32.9167V54.5833C32.9167 58.8635 36.3865 62.3333 40.6667 62.3333ZM40.6667 57.1667C39.2399 57.1667 38.0833 56.0101 38.0833 54.5833V33.9167C38.0833 32.4899 39.2399 31.3333 40.6667 31.3333H74.25C75.6767 31.3333 76.8333 32.4899 76.8333 33.9167V54.5833C76.8333 56.0101 75.6767 57.1667 74.25 57.1667H69.0833C67.6566 57.1667 66.5 58.3233 66.5 59.75V62.3333L60.3 57.6833C59.8528 57.348 59.309 57.1667 58.75 57.1667H40.6667Z" fill="#FF6347"/>
</svg>
