<svg width="77" height="39" viewBox="0 0 77 39" fill="none" xmlns="http://www.w3.org/2000/svg">
<mask id="path-1-inside-1_10_98" fill="white">
<path d="M77 0.5C77 5.55589 76.0042 10.5623 74.0694 15.2333C72.1346 19.9043 69.2987 24.1486 65.7236 27.7236C62.1486 31.2987 57.9043 34.1346 53.2333 36.0694C48.5623 38.0042 43.5559 39 38.5 39C33.4441 39 28.4377 38.0042 23.7667 36.0694C19.0957 34.1346 14.8514 31.2987 11.2764 27.7236C7.70133 24.1486 4.86544 19.9043 2.93064 15.2333C0.995831 10.5623 -4.42e-07 5.55589 0 0.499996L38.5 0.5H77Z"/>
</mask>
<path d="M77 0.5C77 5.55589 76.0042 10.5623 74.0694 15.2333C72.1346 19.9043 69.2987 24.1486 65.7236 27.7236C62.1486 31.2987 57.9043 34.1346 53.2333 36.0694C48.5623 38.0042 43.5559 39 38.5 39C33.4441 39 28.4377 38.0042 23.7667 36.0694C19.0957 34.1346 14.8514 31.2987 11.2764 27.7236C7.70133 24.1486 4.86544 19.9043 2.93064 15.2333C0.995831 10.5623 -4.42e-07 5.55589 0 0.499996L38.5 0.5H77Z" stroke="#0BF7A2" stroke-width="8" mask="url(#path-1-inside-1_10_98)"/>
</svg>
