<svg width="241" height="234" viewBox="0 0 241 234" fill="none" xmlns="http://www.w3.org/2000/svg">
<mask id="path-1-inside-1_20_107" fill="white">
<path d="M241 113.5C241 135.543 234.954 157.163 223.519 176.008C212.085 194.853 195.7 210.201 176.149 220.38C156.598 230.56 134.629 235.182 112.633 233.743C90.6373 232.304 69.4577 224.859 51.3994 212.219C33.3411 199.578 19.096 182.227 10.2144 162.052C1.33286 141.878 -1.84482 119.654 1.02723 97.7995C3.89927 75.9447 12.711 55.2963 26.5034 38.1018C40.2957 20.9073 58.5403 7.82537 79.2513 0.279874L108.436 80.387C102.379 82.5938 97.043 86.4198 93.0092 91.4486C88.9754 96.4774 86.3983 102.516 85.5583 108.908C84.7183 115.3 85.6477 121.8 88.2452 127.7C90.8428 133.6 95.009 138.675 100.29 142.372C105.572 146.069 111.766 148.246 118.199 148.667C124.632 149.088 131.057 147.736 136.775 144.759C142.494 141.782 147.285 137.293 150.63 131.782C153.974 126.27 155.742 119.947 155.742 113.5H241Z"/>
</mask>
<path d="M241 113.5C241 135.543 234.954 157.163 223.519 176.008C212.085 194.853 195.7 210.201 176.149 220.38C156.598 230.56 134.629 235.182 112.633 233.743C90.6373 232.304 69.4577 224.859 51.3994 212.219C33.3411 199.578 19.096 182.227 10.2144 162.052C1.33286 141.878 -1.84482 119.654 1.02723 97.7995C3.89927 75.9447 12.711 55.2963 26.5034 38.1018C40.2957 20.9073 58.5403 7.82537 79.2513 0.279874L108.436 80.387C102.379 82.5938 97.043 86.4198 93.0092 91.4486C88.9754 96.4774 86.3983 102.516 85.5583 108.908C84.7183 115.3 85.6477 121.8 88.2452 127.7C90.8428 133.6 95.009 138.675 100.29 142.372C105.572 146.069 111.766 148.246 118.199 148.667C124.632 149.088 131.057 147.736 136.775 144.759C142.494 141.782 147.285 137.293 150.63 131.782C153.974 126.27 155.742 119.947 155.742 113.5H241Z" stroke="#0BF7A2" stroke-width="8" mask="url(#path-1-inside-1_20_107)"/>
</svg>
