<svg width="105" height="97" viewBox="0 0 105 97" fill="none" xmlns="http://www.w3.org/2000/svg">
<rect width="105" height="96.0784" rx="20" fill="#FF6347" fill-opacity="0.37"/>
<path fill-rule="evenodd" clip-rule="evenodd" d="M60.5024 48.7092C64.1146 45.4099 65.3266 40.2344 63.554 35.6782C61.7814 31.1219 57.3881 28.1201 52.4923 28.1201C47.5965 28.1201 43.2032 31.1219 41.4306 35.6782C39.658 40.2344 40.87 45.4099 44.4822 48.7092C36.4112 51.9632 31.1252 59.781 31.1201 68.4712C31.1201 69.7798 32.1827 70.8407 33.4935 70.8407C34.8043 70.8407 35.8668 69.7798 35.8668 68.4712C35.8668 59.3105 43.305 51.8844 52.4804 51.8844C61.6558 51.8844 69.094 59.3105 69.094 68.4712C69.094 69.7798 70.1566 70.8407 71.4673 70.8407C72.7781 70.8407 73.8407 69.7798 73.8407 68.4712C73.8396 59.7869 68.564 51.9706 60.5024 48.7092ZM45.3603 40.0367C45.3603 36.1107 48.5481 32.9281 52.4804 32.9281C56.4127 32.9281 59.6005 36.1107 59.6005 40.0367C59.6005 43.9627 56.4127 47.1453 52.4804 47.1453C48.5481 47.1453 45.3603 43.9627 45.3603 40.0367Z" fill="#FF6347"/>
</svg>
