<?xml version="1.0" standalone="no"?>
<!DOCTYPE svg PUBLIC "-//W3C//DTD SVG 20010904//EN"
 "http://www.w3.org/TR/2001/REC-SVG-20010904/DTD/svg10.dtd">
<svg version="1.0" xmlns="http://www.w3.org/2000/svg"
 width="300.000000pt" height="150.000000pt" viewBox="0 0 300.000000 150.000000"
 preserveAspectRatio="xMidYMid meet">
<metadata>
Created by potrace 1.10, written by Peter Selinger 2001-2011
</metadata>
<g transform="translate(0.000000,150.000000) scale(0.100000,-0.100000)"
fill="#000000" stroke="none">
<path d="M565 1215 c-49 -19 -97 -39 -105 -43 -25 -14 -152 -50 -210 -60 l-55
-9 60 -2 c76 -1 147 17 286 74 148 61 152 60 190 -18 25 -53 30 -74 27 -122
-2 -39 -8 -60 -17 -63 -10 -3 -12 0 -8 12 8 20 8 20 -32 0 -39 -19 -51 -12
-26 16 10 11 13 20 8 20 -6 0 -17 -7 -24 -16 -15 -18 -59 -37 -67 -29 -3 3 7
19 23 35 33 34 27 39 -13 11 -31 -22 -92 -35 -92 -21 0 6 20 23 45 38 65 39
55 44 -22 11 -38 -16 -81 -28 -98 -28 -25 0 -15 7 53 39 45 21 82 41 82 44 0
3 -30 -6 -67 -21 -91 -34 -123 -43 -155 -43 -39 0 -35 14 10 29 100 36 193 73
189 77 -3 3 -44 -9 -93 -27 -70 -25 -107 -32 -171 -33 -46 0 -83 -4 -83 -7 0
-8 38 -19 69 -19 13 0 32 -11 44 -26 16 -20 26 -25 48 -20 18 3 32 0 40 -10 9
-11 23 -14 48 -10 24 4 40 1 51 -9 16 -14 36 -20 123 -32 36 -5 37 -6 31 -39
-5 -28 -2 -38 22 -62 23 -23 28 -36 26 -65 -2 -23 2 -43 12 -52 11 -11 14 -28
9 -64 -3 -31 -1 -51 6 -55 8 -5 9 -24 5 -57 -5 -35 -3 -54 7 -65 8 -9 12 -27
11 -40 -2 -13 2 -33 9 -46 7 -13 14 -36 15 -53 1 -16 2 -42 3 -57 1 -21 6 -28
21 -28 18 0 20 7 20 63 0 35 4 67 9 72 6 6 12 26 14 45 2 19 10 45 18 57 11
18 11 29 2 53 -9 24 -8 36 4 61 12 24 13 39 5 65 -8 28 -7 36 10 51 15 14 19
26 15 55 -3 21 -1 38 4 38 16 0 43 53 44 84 0 26 4 31 29 33 16 1 34 7 40 13
5 5 24 10 41 10 17 0 36 5 43 12 7 7 30 11 51 9 23 -1 44 3 52 12 8 7 20 12
27 9 15 -5 82 28 82 40 0 5 13 8 28 8 16 0 36 6 45 13 15 10 9 11 -35 8 -63
-4 -127 9 -233 49 -43 16 -73 24 -68 19 6 -6 62 -30 124 -54 80 -30 109 -46
96 -50 -25 -10 -79 2 -165 36 -83 33 -112 32 -36 -2 27 -12 67 -30 89 -40 l40
-19 -42 4 c-23 2 -67 15 -97 29 -68 32 -73 19 -8 -20 l47 -28 -34 -3 c-23 -2
-43 3 -63 18 -37 28 -46 21 -13 -10 14 -13 25 -28 25 -32 0 -13 -40 0 -72 23
-31 22 -37 15 -11 -13 13 -15 14 -18 1 -18 -8 0 -23 7 -34 15 -25 19 -38 19
-30 0 6 -16 -2 -19 -20 -7 -6 4 -8 31 -5 72 8 81 46 164 79 168 12 2 73 -17
135 -42 140 -56 215 -76 291 -76 63 0 71 8 14 16 -130 17 -181 33 -312 95 -22
11 -48 19 -57 19 -10 0 -21 5 -24 10 -11 17 -58 11 -81 -11 l-23 -21 -26 20
c-27 22 -47 20 -77 -6 -15 -13 -20 -12 -44 7 -35 27 -42 27 -149 -14z m263
-22 c4 -30 -31 -49 -52 -27 -12 12 -13 20 -5 35 14 27 53 22 57 -8z m-8 -140
c0 -49 -3 -111 -6 -139 -6 -45 -10 -53 -38 -67 -28 -13 -35 -13 -59 -1 -42 22
-50 47 -26 78 23 29 59 35 59 10 0 -9 -9 -18 -20 -21 -26 -7 -25 -18 2 -37 47
-33 50 -26 46 124 -3 140 -3 140 20 140 21 0 22 -3 22 -87z m82 -120 c40 -36
20 -63 -84 -112 -38 -18 -68 -38 -68 -46 0 -7 22 -29 49 -49 27 -20 52 -44 55
-53 7 -18 -9 -47 -53 -91 -31 -30 -40 -65 -21 -77 6 -4 10 6 10 23 0 16 7 35
15 42 13 11 18 10 30 -6 19 -25 19 -37 -4 -65 -15 -19 -17 -28 -8 -46 8 -17 7
-27 -1 -35 -9 -9 -12 -6 -12 13 0 15 -12 37 -30 54 -16 16 -30 37 -30 46 0 10
18 39 40 64 22 25 40 55 40 65 0 10 -15 27 -33 39 -100 61 -98 98 8 147 41 19
76 38 79 43 3 5 -5 16 -19 25 -14 9 -25 21 -25 26 0 16 42 11 62 -7z m-22
-154 c0 -4 -11 -20 -24 -36 -24 -27 -24 -28 -45 -9 -30 28 -27 62 7 74 20 7
31 6 45 -6 9 -8 17 -19 17 -23z m-100 -87 c0 -4 -5 -13 -11 -19 -8 -8 -7 -17
3 -34 13 -24 13 -23 16 14 2 20 7 35 13 32 16 -10 10 -51 -10 -69 -18 -16 -20
-16 -35 6 -19 27 -20 50 -4 66 14 14 28 16 28 4z m21 -268 c11 -48 10 -144 -1
-144 -6 0 -10 28 -10 64 0 36 -4 68 -10 71 -5 3 -10 15 -10 26 0 30 24 17 31
-17z"/>
<path d="M804 524 c-6 -19 -8 -37 -4 -39 12 -7 34 55 24 65 -6 6 -14 -5 -20
-26z"/>
<path d="M810 768 c0 -30 0 -31 20 -13 15 14 17 21 9 32 -19 22 -29 15 -29
-19z"/>
<path d="M781 434 c0 -11 3 -14 6 -6 3 7 2 16 -1 19 -3 4 -6 -2 -5 -13z"/>
<path d="M455 852 c-42 -9 -45 -20 -45 -152 0 -110 2 -129 18 -143 25 -23 61
-21 87 3 21 20 21 20 43 0 27 -26 57 -25 85 1 21 19 22 28 20 142 -2 107 -5
124 -22 138 -22 18 -74 14 -91 -6 -9 -11 -17 -10 -43 4 -18 10 -41 16 -52 13z
m46 -74 l-3 -48 35 0 34 0 -5 50 -5 50 42 0 41 0 0 -125 0 -125 -41 0 -41 0 4
45 3 45 -33 0 -34 0 4 -45 3 -45 -37 0 -38 0 0 126 0 125 37 -3 37 -3 -3 -47z"/>
<path d="M941 842 c-16 -14 -20 -36 -25 -142 -5 -112 -4 -127 11 -140 26 -22
61 -24 79 -5 15 14 18 14 33 0 20 -17 61 -21 61 -5 0 6 9 10 20 10 11 0 20 -4
20 -8 0 -5 14 -9 30 -10 22 0 35 6 47 24 14 21 18 23 32 11 9 -8 25 -17 36
-22 26 -10 105 -12 105 -2 0 4 6 7 13 7 7 0 25 11 40 25 32 30 36 81 10 125
-14 24 -14 31 -3 45 12 14 15 14 30 0 9 -8 22 -15 28 -15 15 0 21 -25 21 -99
1 -73 13 -94 58 -96 49 -2 63 23 66 109 1 56 6 79 17 86 32 21 40 11 42 -52 1
-35 2 -73 2 -86 1 -28 39 -62 68 -62 43 0 58 35 58 137 0 86 1 93 16 79 8 -9
22 -16 30 -16 15 0 16 -6 14 -95 -1 -67 12 -88 62 -100 20 -5 33 -1 50 15 20
18 23 31 24 96 1 81 0 79 30 88 20 6 22 2 27 -55 6 -66 27 -107 65 -124 12 -5
22 -13 22 -16 0 -12 67 -1 102 15 48 23 70 65 70 137 1 32 3 59 5 59 3 0 18
-9 34 -21 27 -19 29 -24 29 -93 0 -79 15 -106 59 -106 43 0 59 29 64 113 2 42
6 78 8 80 45 26 48 26 53 9 3 -9 5 -50 4 -90 -1 -101 9 -110 111 -108 47 0 84
6 93 14 21 17 28 69 12 90 -16 20 -18 98 -4 107 14 9 12 58 -3 79 -10 13 -31
18 -94 21 -70 4 -83 1 -98 -15 -17 -19 -18 -19 -40 -2 -19 15 -39 17 -116 15
-52 -2 -95 -8 -97 -13 -5 -15 -28 -12 -42 5 -15 18 -80 10 -93 -11 -6 -11 -12
-11 -33 3 -34 22 -71 23 -93 1 -18 -16 -20 -16 -35 1 -23 25 -185 24 -213 -1
-18 -16 -20 -16 -35 -1 -24 23 -74 24 -94 2 -15 -17 -19 -18 -34 -4 -11 10
-45 16 -106 19 -79 4 -91 2 -111 -16 -22 -20 -22 -20 -55 -1 -33 19 -91 23
-133 9 -11 -3 -31 -23 -44 -44 l-25 -37 -7 29 c-12 44 -37 67 -68 60 -53 -12
-61 -16 -61 -30 0 -8 -5 -14 -11 -14 -5 0 -8 -4 -4 -9 3 -5 1 -12 -5 -16 -5
-3 -10 0 -10 8 0 8 -9 25 -20 39 -23 30 -70 34 -99 10z m106 -87 c12 -38 22
-72 23 -75 1 -3 11 29 23 70 22 74 22 75 58 78 l36 3 6 -77 c4 -42 7 -99 7
-126 0 -47 -1 -48 -30 -48 l-30 0 0 68 c-1 74 -10 68 -29 -18 -11 -51 -14 -56
-39 -54 -23 1 -29 7 -42 52 -21 70 -27 72 -22 7 l4 -55 -38 0 -39 0 7 112 c3
62 7 119 7 126 1 9 13 12 38 10 37 -3 38 -4 60 -73z m381 52 c14 -14 13 -18
-2 -42 -16 -25 -19 -25 -35 -11 -19 18 -61 22 -61 6 0 -5 22 -19 49 -31 37
-16 52 -29 60 -51 22 -64 -34 -116 -112 -104 -64 10 -73 18 -58 54 12 29 14
29 39 16 32 -16 58 -18 67 -4 3 5 -19 22 -50 36 -40 19 -57 33 -62 52 -8 35 8
74 37 90 31 16 107 10 128 -11z m262 -11 c0 -34 -1 -35 -36 -29 l-35 6 3 -97
3 -96 -37 0 -38 0 0 96 0 96 -30 -4 c-28 -4 -30 -3 -30 29 l0 33 100 0 100 0
0 -34z m123 -94 l2 -122 -37 0 -38 0 0 126 0 125 36 -3 35 -3 2 -123z m257 94
c0 -34 -1 -35 -36 -29 l-35 6 3 -97 3 -96 -37 0 -38 0 0 96 0 97 -30 -6 c-29
-6 -30 -5 -30 28 l0 35 100 0 100 0 0 -34z m120 -55 c0 -92 12 -120 45 -107
12 4 15 25 15 101 l0 95 38 0 38 0 -4 -102 c-3 -87 -7 -107 -25 -125 -26 -29
-79 -39 -118 -23 -50 21 -59 44 -59 152 l0 98 35 0 35 0 0 -89z m390 55 c0
-34 -1 -35 -36 -29 l-35 6 3 -97 3 -96 -37 0 -38 0 0 96 0 96 -30 -4 c-28 -4
-30 -3 -30 29 l0 33 100 0 100 0 0 -34z m224 -1 c0 -29 0 -29 -52 -26 -47 2
-52 0 -52 -18 0 -18 6 -21 45 -21 43 0 45 -1 45 -30 0 -29 -2 -30 -45 -30 -33
0 -45 -4 -45 -15 0 -12 13 -15 55 -15 54 0 55 0 55 -30 l0 -30 -90 0 -90 0 0
125 0 126 87 -3 87 -3 0 -30z m-577 -47 c-3 -8 -6 -5 -6 6 -1 11 2 17 5 13 3
-3 4 -12 1 -19z m-977 -48 c17 -23 17 -28 3 -55 -15 -27 -16 -28 -23 -9 -5 11
-8 45 -8 75 1 30 3 45 6 34 2 -11 12 -31 22 -45z"/>
</g>
</svg>
